<svg width="130" height="40" viewBox="0 0 130 40" fill="none" xmlns="http://www.w3.org/2000/svg">
<path d="M42.737 32.7609C41.4162 32.7177 40.4669 32.6914 39.8916 32.6818H38.3574V13.9505H41.1213C41.7925 13.9505 42.5596 13.9265 43.4226 13.8786C44.2856 13.8306 44.9088 13.8066 45.2924 13.8066C46.5389 13.8066 47.5912 13.9073 48.4494 14.1111C49.3076 14.3148 49.9812 14.6169 50.4702 15.022C50.9592 15.4271 51.3092 15.8946 51.5177 16.4291C51.7263 16.9613 51.8294 17.5965 51.8294 18.3301C51.8294 19.4591 51.5681 20.43 51.0455 21.2378C50.5229 22.048 49.7678 22.5538 48.7754 22.7552C51.29 22.9781 52.5461 24.4548 52.5461 27.1827C52.5461 28.0025 52.4239 28.7457 52.1794 29.4121C51.9349 30.0785 51.5585 30.6706 51.0527 31.1859C50.5469 31.7037 49.8613 32.1041 48.9984 32.3917C48.1354 32.6794 47.1238 32.8232 45.9612 32.8232C45.1342 32.8256 44.0578 32.804 42.737 32.7609ZM46.3159 17.4119C45.9636 17.1626 45.4578 17.0356 44.7986 17.0356H43.6311V21.6549H44.9256C45.5441 21.6549 46.0187 21.4128 46.3471 20.9286C46.6779 20.4443 46.8433 19.8498 46.8433 19.1475V18.7448C46.8433 18.1071 46.6683 17.6613 46.3159 17.4119ZM46.5413 28.9111C46.8937 28.4844 47.0686 27.9786 47.0686 27.3937V26.2742C47.0686 25.5814 46.8457 25.09 46.3974 24.7952C45.9492 24.5003 45.4434 24.3565 44.8801 24.3565H43.6335V29.5511H44.8801C45.6352 29.5487 46.1889 29.3353 46.5413 28.9111Z" fill="white"/>
<path d="M60.9541 31.4367C60.8462 31.5637 60.6856 31.7147 60.4675 31.8849C60.2493 32.0551 59.9976 32.2253 59.7171 32.3955C59.4343 32.5657 59.0915 32.7119 58.6864 32.8342C58.2813 32.9565 57.8666 33.0188 57.4399 33.0188C54.5633 33.0188 53.125 31.5973 53.125 28.7519C53.125 28.1981 53.2257 27.6899 53.4294 27.2249C53.6308 26.7622 53.8921 26.3691 54.2133 26.0503C54.5321 25.7315 54.9157 25.4462 55.3639 25.1945C55.8122 24.9452 56.2605 24.7462 56.7135 24.6024C57.1666 24.4586 57.6436 24.3387 58.1446 24.2428C58.6456 24.1469 59.0939 24.0822 59.487 24.0511C59.8802 24.0199 60.2589 24.0031 60.6209 24.0031V23.7155C60.6209 23.0658 60.4483 22.608 60.1007 22.3419C59.7531 22.0758 59.197 21.9416 58.4299 21.9416C57.7683 21.9416 57.0827 22.0183 56.3683 22.1741C55.654 22.3275 55.0955 22.5121 54.6903 22.7254L53.6668 20.5512C54.3907 20.0814 55.3352 19.6691 56.4954 19.3119C57.6556 18.9547 58.8398 18.7773 60.0432 18.7773C61.1075 18.7773 61.9872 18.8804 62.68 19.089C63.3728 19.2975 63.9337 19.6475 64.3652 20.1437C64.7967 20.6399 65.1035 21.268 65.2833 22.0303C65.4631 22.7926 65.5542 23.7586 65.5542 24.9308V31.4343L66.0025 32.6808H61.6229L61.1123 31.2593L60.9541 31.4367ZM60.2445 30.1182C60.3668 30.0607 60.4914 29.972 60.6209 29.8546V26.0191C59.9712 26.0191 59.4535 26.1965 59.0699 26.5537C58.6864 26.9109 58.4946 27.4622 58.4946 28.2077C58.4946 29.5405 58.9477 30.2045 59.8538 30.2045C59.9904 30.2069 60.1223 30.1758 60.2445 30.1182Z" fill="white"/>
<path d="M67.5878 32.6827V22.3415L66.6289 21.7494V20.0402L70.064 19.0981H72.78V21.1597L72.9718 20.9199C73.0988 20.7498 73.2882 20.546 73.5399 20.3135C73.7892 20.0785 74.0696 19.8484 74.3789 19.6183C74.6881 19.3882 75.0573 19.1916 75.4888 19.0262C75.9202 18.8608 76.3445 18.7793 76.7592 18.7793C78.2191 18.7793 79.2499 19.1796 79.8516 19.9779C80.4532 20.7761 80.7553 22.1137 80.7553 23.9883C80.7553 24.053 80.7553 24.1489 80.7553 24.276C80.7457 24.403 80.7385 24.5061 80.7385 24.5804V32.6827H75.4648V24.1153C75.4959 23.1133 75.0717 22.6123 74.1871 22.6123C74.1224 22.6123 74.0625 22.6171 74.0025 22.6291C73.945 22.6387 73.8899 22.6507 73.8419 22.6603C73.794 22.6723 73.7412 22.689 73.6813 22.7154C73.6214 22.7418 73.571 22.7634 73.5303 22.7801C73.4871 22.7969 73.4392 22.8233 73.3865 22.8592C73.3337 22.8976 73.2906 22.9264 73.2594 22.9479C73.2282 22.9695 73.1827 23.0031 73.1228 23.051C73.0628 23.099 73.0221 23.1349 72.9957 23.1541C72.9694 23.1757 72.9262 23.2092 72.8687 23.2572C72.8111 23.3051 72.7704 23.3387 72.7488 23.3602V32.6779H67.5878V32.6827Z" fill="white"/>
<path d="M82.5331 14.6059L81.5742 14.0306V12.5443L86.7041 11.7461H87.7421V32.6828H82.5331V14.6059ZM88.0633 26.1457L90.6834 19.0981H96.6762L92.4884 25.3787L96.7721 32.6828H90.5395L88.0633 26.1457Z" fill="white"/>
<path d="M96.7402 31.268C96.6011 30.6879 96.4693 30.2204 96.3398 29.8704L102.028 22.5831L103.819 21.2575C103.34 21.2575 102.906 21.2815 102.517 21.3294C102.129 21.3773 101.801 21.4325 101.534 21.4972C101.268 21.5619 101.024 21.6602 100.799 21.792C100.576 21.9239 100.405 22.0366 100.288 22.1276C100.17 22.2187 100.053 22.3554 99.9356 22.5352C99.8181 22.7173 99.7414 22.8516 99.703 22.9427C99.6647 23.0338 99.6096 23.18 99.5352 23.3814C99.4609 23.5851 99.413 23.717 99.3914 23.7817H97.186V19.0977H107.877C107.93 19.4596 108.024 19.8767 108.158 20.3442C108.29 20.814 108.443 21.2551 108.613 21.6698L103.867 28.703L101.901 30.1581C102.925 30.1581 103.728 30.1149 104.315 30.031C105.2 29.904 105.775 29.6211 106.041 29.1848C106.147 29.0146 106.298 28.5712 106.489 27.8592H108.359V32.6871H96.9967C96.9631 32.3203 96.8768 31.8481 96.7402 31.268Z" fill="white"/>
<path d="M116.876 31.4367C116.77 31.5637 116.607 31.7147 116.389 31.8849C116.171 32.0551 115.919 32.2253 115.639 32.3955C115.356 32.5657 115.013 32.7119 114.608 32.8342C114.203 32.9565 113.788 33.0188 113.362 33.0188C110.485 33.0188 109.047 31.5973 109.047 28.7519C109.047 28.1981 109.148 27.6899 109.351 27.2249C109.553 26.7622 109.814 26.3691 110.135 26.0503C110.454 25.7315 110.838 25.4462 111.286 25.1945C111.734 24.9452 112.182 24.7462 112.635 24.6024C113.088 24.4586 113.565 24.3387 114.066 24.2428C114.568 24.1469 115.016 24.0822 115.409 24.0511C115.802 24.0199 116.181 24.0031 116.543 24.0031V23.7155C116.543 23.0658 116.37 22.608 116.023 22.3419C115.677 22.0758 115.119 21.9416 114.352 21.9416C113.69 21.9416 113.005 22.0183 112.29 22.1741C111.576 22.3275 111.017 22.5121 110.612 22.7254L109.589 20.5512C110.313 20.0814 111.257 19.6691 112.417 19.3119C113.577 18.9547 114.762 18.7773 115.965 18.7773C117.029 18.7773 117.909 18.8804 118.602 19.089C119.295 19.2975 119.856 19.6475 120.287 20.1437C120.719 20.6399 121.025 21.268 121.205 22.0303C121.385 22.7926 121.476 23.7586 121.476 24.9308V31.4343L121.924 32.6808H117.545L117.034 31.2593L116.876 31.4367ZM116.166 30.1182C116.289 30.0607 116.413 29.972 116.543 29.8546V26.0191C115.893 26.0191 115.375 26.1965 114.992 26.5537C114.608 26.9109 114.416 27.4622 114.416 28.2077C114.416 29.5405 114.87 30.2045 115.776 30.2045C115.912 30.2069 116.042 30.1758 116.166 30.1182Z" fill="white"/>
<path d="M123.51 22.3422L122.551 21.7501V20.0409L125.986 19.0988H128.654V32.6835H123.507V22.3422H123.51ZM123.205 14.9901V14.4316L125.825 11.8115H126.432L129.165 14.4316V14.9901L126.432 17.627H125.825L123.205 14.9901Z" fill="white"/>
<path d="M31.8341 39.0724H1.12906C0.505798 39.0724 0 38.5666 0 37.9433V36.1095C0 35.4863 0.505798 34.9805 1.12906 34.9805H31.8341C32.4573 34.9805 32.9631 35.4863 32.9631 36.1095V37.9433C32.9607 38.5666 32.4573 39.0724 31.8341 39.0724Z" fill="white"/>
<path d="M28.6848 15.6114H4.27949C3.16003 15.6114 2.25391 14.7053 2.25391 13.5859V13.4229H30.708V13.5859C30.708 14.7053 29.8019 15.6114 28.6848 15.6114Z" fill="white"/>
<path d="M32.496 9.86845L17.1351 0.188775C16.7348 -0.0629251 16.2242 -0.0629251 15.8215 0.188775L0.460587 9.86845C-0.344854 10.3766 0.0147182 11.6208 0.966385 11.6208H31.9902C32.9419 11.6208 33.3015 10.3766 32.496 9.86845ZM17.1879 7.75896H15.7712C15.239 7.75896 14.8051 7.32747 14.8051 6.79291C14.8051 6.25835 15.2366 5.82686 15.7712 5.82686H17.1879C17.72 5.82686 18.1539 6.25835 18.1539 6.79291C18.1539 7.32747 17.72 7.75896 17.1879 7.75896Z" fill="white"/>
<path d="M8.43911 33.131C7.34841 33.095 6.56694 33.0735 6.08991 33.0639H4.82422V17.6023H7.1063C7.66004 17.6023 8.29289 17.5831 9.00484 17.5424C9.71679 17.504 10.2322 17.4824 10.5486 17.4824C11.577 17.4824 12.4471 17.5663 13.1543 17.7341C13.8615 17.9019 14.4176 18.1512 14.8227 18.4868C15.2278 18.82 15.5155 19.2084 15.6857 19.647C15.8583 20.0881 15.9422 20.6107 15.9422 21.2172C15.9422 22.1497 15.7264 22.9503 15.2949 23.6191C14.8635 24.2879 14.2402 24.705 13.4228 24.8728C15.5011 25.0574 16.5391 26.2751 16.5391 28.5261C16.5391 29.2045 16.4384 29.8157 16.2346 30.3671C16.0333 30.916 15.7216 31.405 15.3045 31.8317C14.8874 32.2584 14.3217 32.5892 13.6098 32.8265C12.8978 33.0639 12.0612 33.1837 11.1023 33.1837C10.4168 33.1837 9.52981 33.1645 8.43911 33.131ZM11.3948 20.4597C11.1047 20.2535 10.6876 20.1504 10.1411 20.1504H9.17743V23.9619H10.2466C10.7572 23.9619 11.1479 23.7629 11.4212 23.3626C11.6944 22.9623 11.8311 22.4709 11.8311 21.8908V21.56C11.8287 21.0326 11.6848 20.6658 11.3948 20.4597ZM11.5794 29.95C11.8694 29.5976 12.0157 29.1805 12.0157 28.6963V27.7734C12.0157 27.2028 11.8311 26.7953 11.4619 26.5532C11.0928 26.3111 10.6757 26.1912 10.2082 26.1912H9.17983V30.4797H10.2082C10.8315 30.4797 11.2893 30.3024 11.5794 29.95Z" fill="#4C88FF"/>
<path d="M17.4355 30.3338L22.0405 21.9174L23.0952 20.6781L17.8718 20.9681V17.6025H27.9782V19.8583L23.0041 29.001L22.0932 30.0293L28.1364 29.7393V33.0641H17.4355V30.3338Z" fill="#4C88FF"/>
</svg>
