<svg width="192" height="192" viewBox="0 0 192 192" fill="none" xmlns="http://www.w3.org/2000/svg">
<path d="M174.228 95.9995C174.228 106.273 172.204 116.445 168.273 125.936C164.342 135.427 158.579 144.051 151.315 151.315C144.051 158.579 135.427 164.342 125.936 168.273C116.445 172.204 106.273 174.228 95.9995 174.228C85.7265 174.228 75.554 172.204 66.063 168.273C56.5719 164.342 47.9481 158.579 40.684 151.315C33.4198 144.051 27.6576 135.427 23.7262 125.936C19.7949 116.445 17.7715 106.273 17.7715 95.9995C17.7715 85.7265 19.7949 75.554 23.7262 66.063C27.6576 56.5719 33.4198 47.9481 40.684 40.6839C47.9481 33.4198 56.5719 27.6576 66.063 23.7262C75.554 19.7949 85.7265 17.7715 95.9996 17.7715C106.273 17.7715 116.445 19.7949 125.936 23.7262C135.427 27.6576 144.051 33.4198 151.315 40.684C158.579 47.9481 164.342 56.5719 168.273 66.063C172.204 75.554 174.228 85.7265 174.228 95.9996L174.228 95.9995Z" stroke="#F2F6F7" stroke-width="10"/>
<path d="M95.9996 17.7715C110.911 17.7715 125.512 22.0335 138.083 30.0554C150.653 38.0772 160.669 49.5247 166.95 63.0492C173.231 76.5736 175.515 91.6115 173.534 106.391C171.554 121.171 165.39 135.076 155.769 146.47" stroke="#BE63F9" stroke-width="10" stroke-linecap="round"/>
<path d="M187 96C187 107.95 184.646 119.784 180.073 130.824C175.5 141.865 168.797 151.897 160.347 160.347C151.897 168.797 141.865 175.5 130.824 180.073C119.784 184.646 107.95 187 96 187C84.0497 187 72.2164 184.646 61.1758 180.073C50.1352 175.5 40.1034 168.797 31.6533 160.347C23.2031 151.897 16.5001 141.865 11.927 130.824C7.35378 119.784 5 107.95 5 96C5 84.0497 7.35379 72.2164 11.927 61.1758C16.5001 50.1352 23.2032 40.1034 31.6533 31.6533C40.1034 23.2031 50.1352 16.5001 61.1758 11.927C72.2164 7.35378 84.0497 5 96 5C107.95 5 119.784 7.35379 130.824 11.927C141.865 16.5001 151.897 23.2032 160.347 31.6533C168.797 40.1034 175.5 50.1352 180.073 61.1758C184.646 72.2165 187 84.0497 187 96L187 96Z" stroke="#F2F6F7" stroke-width="10"/>
<path d="M96 5C110.483 5 124.757 8.4568 137.635 15.0831C150.513 21.7093 161.623 31.3137 170.043 43.0978C178.462 54.8819 183.948 68.5055 186.043 82.836C188.138 97.1666 186.782 111.79 182.089 125.491C177.395 139.193 169.499 151.576 159.057 161.611C148.615 171.647 135.928 179.045 122.051 183.191C108.174 187.338 93.5084 188.112 79.2723 185.449C65.0362 182.787 51.6412 176.765 40.2005 167.885" stroke="#3C77EE" stroke-width="10" stroke-linecap="round"/>
<path d="M161.455 96.0001C161.455 104.596 159.762 113.108 156.473 121.049C153.183 128.991 148.362 136.206 142.284 142.285C136.205 148.363 128.99 153.184 121.048 156.474C113.107 159.763 104.595 161.456 95.9991 161.456C87.4033 161.456 78.8916 159.763 70.9501 156.474C63.0086 153.184 55.7928 148.363 49.7146 142.285C43.6365 136.206 38.815 128.991 35.5255 121.049C32.236 113.108 30.543 104.596 30.543 96.0001C30.543 87.4043 32.236 78.8926 35.5255 70.9511C38.815 63.0096 43.6365 55.7938 49.7146 49.7156C55.7928 43.6374 63.0086 38.816 70.9501 35.5265C78.8916 32.237 87.4033 30.5439 95.9991 30.5439C104.595 30.5439 113.107 32.237 121.048 35.5265C128.99 38.816 136.205 43.6374 142.284 49.7156C148.362 55.7938 153.183 63.0096 156.473 70.9511C159.762 78.8926 161.455 87.4043 161.455 96.0001L161.455 96.0001Z" stroke="#F2F6F7" stroke-width="10"/>
<path d="M95.9991 30.5439C106.286 30.5439 116.429 32.9687 125.604 37.6215C134.779 42.2743 142.728 49.0242 148.807 57.3237C154.885 65.6231 158.922 75.2385 160.59 85.3897C162.257 95.541 161.509 105.942 158.405 115.75" stroke="#4CBF73" stroke-width="10" stroke-linecap="round"/>
</svg>
