<svg width="24" height="24" viewBox="0 0 24 24" fill="none" xmlns="http://www.w3.org/2000/svg">
<path d="M21.5 13V5C21.5 4.60218 21.342 4.22064 21.0607 3.93934C20.7794 3.65804 20.3978 3.5 20 3.5H4C3.60218 3.5 3.22064 3.65804 2.93934 3.93934C2.65804 4.22064 2.5 4.60218 2.5 5V19C2.5 19.3978 2.65804 19.7794 2.93934 20.0607C3.22064 20.342 3.60218 20.5 4 20.5H14.235M15.5 17H21.5H15.5Z" stroke="#576473" stroke-width="1.6" stroke-linecap="round" stroke-linejoin="round"/>
<path d="M10 10.5V16.5M18 19.5L15.5 17L18 14.5V19.5ZM7.5 7.5L10 10.5L12.5 7.5H7.5ZM7 13.5H13H7ZM7 10.5H13H7Z" stroke="#576473" stroke-width="1.6" stroke-linecap="round" stroke-linejoin="round"/>
</svg>
