<svg width="24" height="24" viewBox="0 0 24 24" fill="none" xmlns="http://www.w3.org/2000/svg">
<path d="M2.5 11L2.5 19C2.5 19.3978 2.65804 19.7794 2.93934 20.0607C3.22065 20.342 3.60218 20.5 4 20.5L20 20.5C20.3978 20.5 20.7794 20.342 21.0607 20.0607C21.342 19.7794 21.5 19.3978 21.5 19L21.5 5C21.5 4.60218 21.342 4.22065 21.0607 3.93934C20.7794 3.65804 20.3978 3.5 20 3.5L9.765 3.5M8.5 7L2.5 7L8.5 7Z" stroke="#576473" stroke-width="1.6" stroke-linecap="round" stroke-linejoin="round"/>
<path d="M14 13.5L14 7.5M6 4.5L8.5 7L6 9.5L6 4.5ZM16.5 16.5L14 13.5L11.5 16.5L16.5 16.5ZM17 10.5L11 10.5L17 10.5ZM17 13.5L11 13.5L17 13.5Z" stroke="#576473" stroke-width="1.6" stroke-linecap="round" stroke-linejoin="round"/>
</svg>
