<svg width="24" height="24" viewBox="0 0 24 24" fill="none" xmlns="http://www.w3.org/2000/svg">
<mask id="mask0_387_1884" style="mask-type:alpha" maskUnits="userSpaceOnUse" x="0" y="0" width="24" height="24">
<rect width="24" height="24" fill="#C4C4C4"/>
</mask>
<g mask="url(#mask0_387_1884)">
<path d="M21.6015 12.2276C21.6023 11.5462 21.5447 10.8659 21.4292 10.1943H11.999V14.0456H17.4002C17.2897 14.6607 17.0558 15.247 16.7125 15.7693C16.3693 16.2916 15.9239 16.7389 15.4031 17.0844V19.5843H18.6266C20.514 17.8441 21.6015 15.2705 21.6015 12.2276Z" fill="#596680"/>
<path d="M11.9993 21.9999C14.6979 21.9999 16.97 21.1138 18.6269 19.5861L15.4034 17.0862C14.5062 17.6945 13.3507 18.0417 11.9993 18.0417C9.39111 18.0417 7.1773 16.2834 6.38566 13.9141H3.06494V16.4904C3.89723 18.1465 5.17345 19.5388 6.75112 20.5117C8.32879 21.4845 10.1458 21.9998 11.9993 21.9999V21.9999Z" fill="#596680"/>
<path d="M6.3855 13.9137C5.96699 12.6721 5.96699 11.3276 6.3855 10.0861V7.50977H3.06478C2.36464 8.90299 2 10.4406 2 11.9999C2 13.5591 2.36464 15.0968 3.06478 16.49L6.3855 13.9137Z" fill="#596680"/>
<path d="M11.9993 5.95885C13.4254 5.93555 14.8033 6.47435 15.8353 7.4588L18.6894 4.60473C16.8796 2.9049 14.4821 1.97166 11.9993 2.00066C10.1458 2.00074 8.32879 2.51599 6.75112 3.48888C5.17345 4.46178 3.89723 5.85402 3.06494 7.51018L6.38566 10.0865C7.1773 7.71712 9.39111 5.95885 11.9993 5.95885V5.95885Z" fill="#596680"/>
</g>
</svg>
