<svg width="24" height="24" viewBox="0 0 24 24" fill="none" xmlns="http://www.w3.org/2000/svg">
<path d="M12.8 19V18.2H11.2V19H12.8ZM11.2 22C11.2 22.4418 11.5582 22.8 12 22.8C12.4418 22.8 12.8 22.4418 12.8 22H11.2ZM11.2 19V22H12.8V19H11.2Z" fill="#576473"/>
<path d="M5.65844 14.2005C6.28585 13.89 6.62724 14.69 6.62724 14.69L6.63743 14.7093C6.64745 14.7281 6.66412 14.7584 6.6876 14.7988C6.73463 14.8796 6.80868 14.9999 6.9111 15.1467C7.11652 15.4409 7.43253 15.8363 7.86904 16.2315C8.73671 17.0171 10.0759 17.8005 11.9998 17.8005C13.9238 17.8005 15.263 17.0171 16.1306 16.2315C16.5671 15.8363 16.8831 15.4409 17.0886 15.1467C17.191 14.9999 17.265 14.8796 17.3121 14.7988C17.3355 14.7584 17.3522 14.7281 17.3622 14.7093L17.3723 14.6903C17.5439 14.3442 17.9639 14.2017 18.3103 14.373C18.6568 14.5445 18.7987 14.9644 18.6272 15.3109L18.6266 15.3122L18.6257 15.3139L18.6235 15.3183L18.6172 15.3307C18.6121 15.3407 18.6052 15.3539 18.5965 15.3702C18.579 15.4027 18.5543 15.4476 18.5221 15.5029C18.4578 15.6135 18.3632 15.7666 18.2366 15.948C17.9839 16.31 17.6002 16.7896 17.0702 17.2694C16.005 18.2338 14.3442 19.2005 11.9998 19.2005C9.65552 19.2005 7.99468 18.2338 6.92942 17.2694C6.39946 16.7896 6.01577 16.31 5.76311 15.948C5.63649 15.7666 5.54191 15.6135 5.47755 15.5029C5.44535 15.4476 5.42064 15.4027 5.40321 15.3702C5.39449 15.3539 5.38759 15.3407 5.38247 15.3307L5.37612 15.3183L5.37395 15.3139L5.3731 15.3122C5.3731 15.3122 5.37289 15.3117 5.37247 15.3107C5.35641 15.272 5.04692 14.503 5.65844 14.2005Z" fill="#576473"/>
<rect x="8" y="3" width="8" height="12" rx="4" stroke="#576473" stroke-width="1.6"/>
</svg>
