<svg width="24" height="24" viewBox="0 0 24 24" fill="none" xmlns="http://www.w3.org/2000/svg">
<path d="M21.7274 7.28478C21.7332 9.07427 21.1702 10.3919 20.0955 11.4795C17.0332 14.5809 13.969 17.6784 10.8877 20.7607C9.32041 22.3296 7.14447 22.3967 5.71223 20.964C4.25336 19.5044 4.32564 17.2853 5.91575 15.6703C8.25907 13.29 10.6214 10.929 12.9704 8.55449C13.3718 8.14788 13.8245 7.72783 14.3342 8.26104C14.8459 8.79425 14.4008 9.23922 14.0051 9.63817C11.6485 12.0069 9.29188 14.3737 6.94666 16.752C6.03558 17.6746 5.89673 18.6777 6.50729 19.5984C7.25859 20.7338 8.71366 20.8259 9.78831 19.7556C11.9757 17.5787 14.1364 15.3768 16.3104 13.1865C17.2063 12.2831 18.125 11.4008 18.998 10.4763C20.6604 8.71753 20.6585 6.2433 19.0227 4.65135C17.4003 3.07092 15.038 3.13229 13.3261 4.84315C10.1992 7.96759 7.09502 11.117 3.98137 14.2548C3.77975 14.4581 3.58384 14.671 3.3556 14.8398C3.0741 15.0489 2.75836 15.0527 2.48066 14.8187C2.17062 14.5559 2.12498 14.2145 2.32279 13.875C2.44832 13.6602 2.63472 13.4742 2.81352 13.2958C5.99754 10.0889 9.15493 6.85898 12.3751 3.69235C15.5211 0.59861 20.5482 2.03903 21.5848 6.29317C21.6799 6.69211 21.7027 7.11024 21.7274 7.28478Z" fill="#576473"/>
</svg>
