<svg width="24" height="24" viewBox="0 0 24 24" fill="none" xmlns="http://www.w3.org/2000/svg">
<mask id="mask0_386_1873" style="mask-type:alpha" maskUnits="userSpaceOnUse" x="0" y="0" width="24" height="24">
<rect width="24" height="24" fill="#C4C4C4"/>
</mask>
<g mask="url(#mask0_386_1873)">
<path d="M18.0234 21.3903C18.2386 21.6229 18.5126 21.7497 18.8355 21.7497C19.4813 21.7497 19.9998 21.2001 19.9998 20.5025C19.9998 20.1537 19.8629 19.8367 19.6378 19.5936L12.7886 12.3643L19.6378 5.15611C19.8629 4.91302 19.9998 4.58537 19.9998 4.24716C19.9998 3.5496 19.4813 3 18.8355 3C18.5126 3 18.2386 3.12683 18.0234 3.35935L10.411 11.3919C10.137 11.6667 10.0098 12.0049 10 12.3748C10 12.7448 10.137 13.0618 10.411 13.3472L18.0234 21.3903Z" fill="#576473"/>
<line x1="5.65" y1="3" x2="5.65" y2="21.7497" stroke="#576473" stroke-width="1.3"/>
</g>
</svg>
