<svg width="24" height="24" viewBox="0 0 24 24" fill="none" xmlns="http://www.w3.org/2000/svg">
<path d="M10 19L9.43431 18.4343L8.86863 19L9.43431 19.5657L10 19ZM13.4343 14.4343L9.43431 18.4343L10.5657 19.5657L14.5657 15.5657L13.4343 14.4343ZM9.43431 19.5657L13.4343 23.5657L14.5657 22.4343L10.5657 18.4343L9.43431 19.5657Z" fill="#576473"/>
<path d="M18.0622 8.5C18.7138 9.62862 19.0374 10.9167 18.9966 12.2193C18.9557 13.5219 18.5521 14.7872 17.8311 15.8728C17.11 16.9584 16.1003 17.8212 14.9155 18.364C13.7307 18.9068 12.4179 19.108 11.1249 18.9451" stroke="#576473" stroke-width="1.6" stroke-linecap="round"/>
<path d="M14 5L14.5657 5.56569L15.1314 5L14.5657 4.43431L14 5ZM10.5657 9.56569L14.5657 5.56569L13.4343 4.43431L9.43431 8.43431L10.5657 9.56569ZM14.5657 4.43431L10.5657 0.434315L9.43431 1.56569L13.4343 5.56569L14.5657 4.43431Z" fill="#576473"/>
<path d="M5.93782 15.5C5.27676 14.355 4.95347 13.0462 5.0054 11.7251C5.05733 10.404 5.48234 9.12457 6.23124 8.03498C6.98013 6.9454 8.02229 6.09019 9.23708 5.56834C10.4519 5.04649 11.7896 4.87934 13.0955 5.08625" stroke="#576473" stroke-width="1.6" stroke-linecap="round"/>
</svg>
