<svg width="24" height="24" viewBox="0 0 24 24" fill="none" xmlns="http://www.w3.org/2000/svg">
<path d="M11.9836 22.1601C6.35323 22.0094 1.84973 17.3957 2.02755 11.9586C2.2131 6.30123 6.81132 1.84025 12.2561 2.03547C17.8826 2.23842 22.2914 6.75158 22.1657 12.1828C22.0362 17.8035 17.4438 22.3032 11.9836 22.1601Z" fill="#576473"/>
<path d="M12.0652 3.52937C16.7504 3.51004 20.6257 7.34285 20.6644 12.0377C20.7049 16.7306 16.7794 20.6755 12.0787 20.6639C7.40897 20.6523 3.53557 16.7731 3.52784 12.0996C3.52011 7.42016 7.37612 3.5487 12.0652 3.52937Z" fill="white"/>
<path d="M12.0146 17.628C10.248 17.5778 8.74816 16.8897 7.54593 15.5483C7.18449 15.1463 6.99314 14.7114 7.49181 14.2997C7.94023 13.9286 8.29974 14.1799 8.65925 14.5278C10.8839 16.6867 13.3077 16.6887 15.5324 14.5297C15.9267 14.147 16.3133 13.9131 16.7694 14.3635C17.1908 14.779 16.9743 15.183 16.6476 15.5464C15.4203 16.9129 13.8876 17.6068 12.0146 17.628Z" fill="#576473"/>
<path d="M9.09382 10.8294C8.40573 10.841 7.7621 10.2322 7.82395 9.55373C7.88967 8.83472 8.30136 8.34764 9.05516 8.34378C9.79158 8.33991 10.2477 8.75354 10.2999 9.51314C10.3502 10.2438 9.8109 10.8178 9.09382 10.8294Z" fill="#576473"/>
<path d="M16.3784 9.59481C16.3011 10.2442 15.9687 10.741 15.2129 10.8222C14.4997 10.8995 13.9025 10.3544 13.8909 9.62767C13.8793 8.86613 14.291 8.43318 15.0235 8.33847C15.6981 8.25149 16.3475 8.8526 16.3784 9.59481Z" fill="#576473"/>
</svg>
