<svg width="28" height="28" viewBox="0 0 28 28" fill="none" xmlns="http://www.w3.org/2000/svg">
<path d="M3.41567 15.9448C2.88696 14.9944 2.6226 14.5192 2.6226 14.0003C2.6226 13.4815 2.88696 13.0063 3.41567 12.0558L5.17008 8.90199L7.02417 5.80571C7.58292 4.87262 7.8623 4.40607 8.31163 4.14665C8.76096 3.88723 9.30469 3.87855 10.3921 3.86121L14.0007 3.80366L17.6092 3.86121C18.6966 3.87855 19.2403 3.88723 19.6897 4.14665C20.139 4.40607 20.4184 4.87262 20.9771 5.80571L22.8312 8.90199L24.5856 12.0558C25.1143 13.0063 25.3787 13.4815 25.3787 14.0003C25.3787 14.5192 25.1143 14.9944 24.5856 15.9448L22.8312 19.0987L20.9771 22.1949C20.4184 23.128 20.139 23.5946 19.6897 23.854C19.2403 24.1134 18.6966 24.1221 17.6092 24.1394L14.0007 24.197L10.3921 24.1394C9.30469 24.1221 8.76096 24.1134 8.31163 23.854C7.8623 23.5946 7.58292 23.128 7.02417 22.1949L5.17008 19.0987L3.41567 15.9448Z" stroke="#576473" stroke-width="1.6"/>
<circle cx="14" cy="14" r="3.5" stroke="#576473" stroke-width="1.6"/>
</svg>
