<svg width="723" height="267" viewBox="0 0 723 267" fill="none" xmlns="http://www.w3.org/2000/svg">
<path d="M3.69886 12.1193C3.11364 12.1193 2.59659 12.0156 2.14773 11.8082C1.7017 11.598 1.35369 11.3097 1.10369 10.9432C0.853693 10.5739 0.730114 10.1534 0.732955 9.68182C0.730114 9.3125 0.802557 8.97159 0.950284 8.65909C1.09801 8.34375 1.29972 8.08097 1.5554 7.87074C1.81392 7.65767 2.10227 7.52273 2.42045 7.46591V7.41477C2.00284 7.30682 1.67045 7.07244 1.4233 6.71165C1.17614 6.34801 1.05398 5.93466 1.05682 5.47159C1.05398 5.02841 1.16619 4.6321 1.39347 4.28267C1.62074 3.93324 1.93324 3.65767 2.33097 3.45597C2.73153 3.25426 3.1875 3.15341 3.69886 3.15341C4.20455 3.15341 4.65625 3.25426 5.05398 3.45597C5.4517 3.65767 5.7642 3.93324 5.99148 4.28267C6.22159 4.6321 6.33807 5.02841 6.34091 5.47159C6.33807 5.93466 6.21165 6.34801 5.96165 6.71165C5.71449 7.07244 5.38636 7.30682 4.97727 7.41477V7.46591C5.29261 7.52273 5.5767 7.65767 5.82955 7.87074C6.08239 8.08097 6.28409 8.34375 6.43466 8.65909C6.58523 8.97159 6.66193 9.3125 6.66477 9.68182C6.66193 10.1534 6.53409 10.5739 6.28125 10.9432C6.03125 11.3097 5.68324 11.598 5.23722 11.8082C4.79403 12.0156 4.28125 12.1193 3.69886 12.1193ZM3.69886 11.1818C4.09375 11.1818 4.43466 11.1179 4.72159 10.9901C5.00852 10.8622 5.23011 10.6818 5.38636 10.4489C5.54261 10.2159 5.62216 9.94318 5.625 9.63068C5.62216 9.30114 5.53693 9.00994 5.36932 8.7571C5.2017 8.50426 4.97301 8.3054 4.68324 8.16051C4.39631 8.01562 4.06818 7.94318 3.69886 7.94318C3.3267 7.94318 2.99432 8.01562 2.7017 8.16051C2.41193 8.3054 2.18324 8.50426 2.01562 8.7571C1.85085 9.00994 1.76989 9.30114 1.77273 9.63068C1.76989 9.94318 1.84517 10.2159 1.99858 10.4489C2.15483 10.6818 2.37784 10.8622 2.66761 10.9901C2.95739 11.1179 3.30114 11.1818 3.69886 11.1818ZM3.69886 7.03977C4.01136 7.03977 4.28835 6.97727 4.52983 6.85227C4.77415 6.72727 4.96591 6.55256 5.10511 6.32812C5.24432 6.10369 5.31534 5.84091 5.31818 5.53977C5.31534 5.24432 5.24574 4.98722 5.10938 4.76847C4.97301 4.54687 4.78409 4.37642 4.54261 4.2571C4.30114 4.13494 4.01989 4.07386 3.69886 4.07386C3.37216 4.07386 3.08665 4.13494 2.84233 4.2571C2.59801 4.37642 2.40909 4.54687 2.27557 4.76847C2.14205 4.98722 2.0767 5.24432 2.07955 5.53977C2.0767 5.84091 2.14347 6.10369 2.27983 6.32812C2.41903 6.55256 2.6108 6.72727 2.85511 6.85227C3.09943 6.97727 3.38068 7.03977 3.69886 7.03977ZM11.1445 12.1193C10.5025 12.1193 9.95561 11.9446 9.50391 11.5952C9.0522 11.2429 8.70703 10.733 8.46839 10.0653C8.22976 9.39489 8.11044 8.58523 8.11044 7.63636C8.11044 6.69318 8.22976 5.88778 8.46839 5.22017C8.70987 4.54972 9.05646 4.03835 9.50817 3.68608C9.96271 3.33097 10.5082 3.15341 11.1445 3.15341C11.7809 3.15341 12.3249 3.33097 12.7766 3.68608C13.2312 4.03835 13.5778 4.54972 13.8164 5.22017C14.0579 5.88778 14.1786 6.69318 14.1786 7.63636C14.1786 8.58523 14.0593 9.39489 13.8207 10.0653C13.582 10.733 13.2369 11.2429 12.7852 11.5952C12.3335 11.9446 11.7866 12.1193 11.1445 12.1193ZM11.1445 11.1818C11.7809 11.1818 12.2752 10.875 12.6275 10.2614C12.9798 9.64773 13.1559 8.77273 13.1559 7.63636C13.1559 6.88068 13.0749 6.23722 12.913 5.70597C12.7539 5.17472 12.5238 4.76989 12.2227 4.49148C11.9244 4.21307 11.565 4.07386 11.1445 4.07386C10.5138 4.07386 10.021 4.38494 9.66584 5.0071C9.31072 5.62642 9.13317 6.50284 9.13317 7.63636C9.13317 8.39205 9.21271 9.03409 9.3718 9.5625C9.53089 10.0909 9.75959 10.4929 10.0579 10.7685C10.359 11.044 10.7212 11.1818 11.1445 11.1818Z" fill="#627183"/>
<path d="M3.80114 56.1193C3.44318 56.1136 3.08523 56.0455 2.72727 55.9148C2.36932 55.7841 2.04261 55.5639 1.74716 55.2543C1.4517 54.9418 1.21449 54.5199 1.03551 53.9886C0.856534 53.4545 0.767045 52.7841 0.767045 51.9773C0.767045 51.2045 0.839489 50.5199 0.984375 49.9233C1.12926 49.3239 1.33949 48.8196 1.61506 48.4105C1.89063 47.9986 2.22301 47.6861 2.61222 47.473C3.00426 47.2599 3.44602 47.1534 3.9375 47.1534C4.42614 47.1534 4.8608 47.2514 5.24148 47.4474C5.625 47.6406 5.9375 47.9105 6.17898 48.2571C6.42045 48.6037 6.5767 49.0028 6.64773 49.4545H5.60795C5.51136 49.0625 5.32386 48.7372 5.04545 48.4787C4.76705 48.2202 4.39773 48.0909 3.9375 48.0909C3.26136 48.0909 2.72869 48.3849 2.33949 48.973C1.95313 49.5611 1.75852 50.3864 1.75568 51.4489H1.82386C1.98295 51.2074 2.17188 51.0014 2.39062 50.831C2.61222 50.6577 2.85653 50.5241 3.12358 50.4304C3.39063 50.3366 3.6733 50.2898 3.97159 50.2898C4.47159 50.2898 4.92898 50.4148 5.34375 50.6648C5.75852 50.9119 6.09091 51.2543 6.34091 51.6918C6.59091 52.1264 6.71591 52.625 6.71591 53.1875C6.71591 53.7273 6.59517 54.2216 6.35369 54.6705C6.11222 55.1165 5.77273 55.4716 5.33523 55.7358C4.90057 55.9972 4.3892 56.125 3.80114 56.1193ZM3.80114 55.1818C4.15909 55.1818 4.48011 55.0923 4.7642 54.9134C5.05114 54.7344 5.27699 54.4943 5.44176 54.1932C5.60938 53.892 5.69318 53.5568 5.69318 53.1875C5.69318 52.8267 5.61222 52.4986 5.45028 52.2031C5.29119 51.9048 5.07102 51.6676 4.78977 51.4915C4.51136 51.3153 4.19318 51.2273 3.83523 51.2273C3.56534 51.2273 3.31392 51.2812 3.08097 51.3892C2.84801 51.4943 2.64347 51.6392 2.46733 51.8239C2.29403 52.0085 2.15767 52.2202 2.05824 52.4588C1.95881 52.6946 1.90909 52.9432 1.90909 53.2045C1.90909 53.5511 1.99006 53.875 2.15199 54.1761C2.31676 54.4773 2.54119 54.7202 2.82528 54.9048C3.11222 55.0895 3.4375 55.1818 3.80114 55.1818ZM11.2383 56.1193C10.5962 56.1193 10.0494 55.9446 9.59766 55.5952C9.14595 55.2429 8.80078 54.733 8.56214 54.0653C8.32351 53.3949 8.20419 52.5852 8.20419 51.6364C8.20419 50.6932 8.32351 49.8878 8.56214 49.2202C8.80362 48.5497 9.15021 48.0384 9.60192 47.6861C10.0565 47.331 10.6019 47.1534 11.2383 47.1534C11.8746 47.1534 12.4187 47.331 12.8704 47.6861C13.3249 48.0384 13.6715 48.5497 13.9102 49.2202C14.1516 49.8878 14.2724 50.6932 14.2724 51.6364C14.2724 52.5852 14.1531 53.3949 13.9144 54.0653C13.6758 54.733 13.3306 55.2429 12.8789 55.5952C12.4272 55.9446 11.8803 56.1193 11.2383 56.1193ZM11.2383 55.1818C11.8746 55.1818 12.369 54.875 12.7212 54.2614C13.0735 53.6477 13.2496 52.7727 13.2496 51.6364C13.2496 50.8807 13.1687 50.2372 13.0067 49.706C12.8477 49.1747 12.6175 48.7699 12.3164 48.4915C12.0181 48.2131 11.6587 48.0739 11.2383 48.0739C10.6076 48.0739 10.1147 48.3849 9.75959 49.0071C9.40447 49.6264 9.22692 50.5028 9.22692 51.6364C9.22692 52.392 9.30646 53.0341 9.46555 53.5625C9.62464 54.0909 9.85334 54.4929 10.1516 54.7685C10.4528 55.044 10.815 55.1818 11.2383 55.1818Z" fill="#627183"/>
<path d="M0.698864 98.2102V97.3409L4.53409 91.2727H5.16477V92.6193H4.73864L1.84091 97.2045V97.2727H7.00568V98.2102H0.698864ZM4.80682 100V97.946V97.5412V91.2727H5.8125V100H4.80682ZM11.4492 100.119C10.8072 100.119 10.2603 99.9446 9.80859 99.5952C9.35689 99.2429 9.01172 98.733 8.77308 98.0653C8.53445 97.3949 8.41513 96.5852 8.41513 95.6364C8.41513 94.6932 8.53445 93.8878 8.77308 93.2202C9.01456 92.5497 9.36115 92.0384 9.81286 91.6861C10.2674 91.331 10.8129 91.1534 11.4492 91.1534C12.0856 91.1534 12.6296 91.331 13.0813 91.6861C13.5359 92.0384 13.8825 92.5497 14.1211 93.2202C14.3626 93.8878 14.4833 94.6932 14.4833 95.6364C14.4833 96.5852 14.364 97.3949 14.1254 98.0653C13.8867 98.733 13.5415 99.2429 13.0898 99.5952C12.6381 99.9446 12.0913 100.119 11.4492 100.119ZM11.4492 99.1818C12.0856 99.1818 12.5799 98.875 12.9322 98.2614C13.2844 97.6477 13.4606 96.7727 13.4606 95.6364C13.4606 94.8807 13.3796 94.2372 13.2177 93.706C13.0586 93.1747 12.8285 92.7699 12.5273 92.4915C12.229 92.2131 11.8697 92.0739 11.4492 92.0739C10.8185 92.0739 10.3256 92.3849 9.97053 93.0071C9.61541 93.6264 9.43786 94.5028 9.43786 95.6364C9.43786 96.392 9.5174 97.0341 9.67649 97.5625C9.83558 98.0909 10.0643 98.4929 10.3626 98.7685C10.6637 99.044 11.0259 99.1818 11.4492 99.1818Z" fill="#627183"/>
<path d="M0.903409 144V143.233L3.78409 140.08C4.12216 139.71 4.40057 139.389 4.61932 139.116C4.83807 138.841 5 138.582 5.10511 138.341C5.21307 138.097 5.26705 137.841 5.26705 137.574C5.26705 137.267 5.19318 137.001 5.04545 136.777C4.90057 136.553 4.7017 136.379 4.44886 136.257C4.19602 136.135 3.91193 136.074 3.59659 136.074C3.26136 136.074 2.96875 136.143 2.71875 136.283C2.47159 136.419 2.27983 136.611 2.14347 136.858C2.00994 137.105 1.94318 137.395 1.94318 137.727H0.9375C0.9375 137.216 1.0554 136.767 1.29119 136.381C1.52699 135.994 1.84801 135.693 2.25426 135.477C2.66335 135.261 3.12216 135.153 3.63068 135.153C4.14205 135.153 4.59517 135.261 4.99006 135.477C5.38494 135.693 5.6946 135.984 5.91903 136.351C6.14347 136.717 6.25568 137.125 6.25568 137.574C6.25568 137.895 6.19744 138.209 6.08097 138.516C5.96733 138.82 5.76847 139.159 5.48438 139.534C5.20312 139.906 4.8125 140.361 4.3125 140.898L2.35227 142.994V143.062H6.40909V144H0.903409ZM11.0156 144.119C10.3736 144.119 9.8267 143.945 9.375 143.595C8.9233 143.243 8.57813 142.733 8.33949 142.065C8.10085 141.395 7.98153 140.585 7.98153 139.636C7.98153 138.693 8.10085 137.888 8.33949 137.22C8.58097 136.55 8.92756 136.038 9.37926 135.686C9.83381 135.331 10.3793 135.153 11.0156 135.153C11.652 135.153 12.196 135.331 12.6477 135.686C13.1023 136.038 13.4489 136.55 13.6875 137.22C13.929 137.888 14.0497 138.693 14.0497 139.636C14.0497 140.585 13.9304 141.395 13.6918 142.065C13.4531 142.733 13.108 143.243 12.6562 143.595C12.2045 143.945 11.6577 144.119 11.0156 144.119ZM11.0156 143.182C11.652 143.182 12.1463 142.875 12.4986 142.261C12.8509 141.648 13.027 140.773 13.027 139.636C13.027 138.881 12.946 138.237 12.7841 137.706C12.625 137.175 12.3949 136.77 12.0938 136.491C11.7955 136.213 11.4361 136.074 11.0156 136.074C10.3849 136.074 9.89205 136.385 9.53693 137.007C9.18182 137.626 9.00426 138.503 9.00426 139.636C9.00426 140.392 9.08381 141.034 9.2429 141.562C9.40199 142.091 9.63068 142.493 9.92898 142.768C10.2301 143.044 10.5923 143.182 11.0156 143.182Z" fill="#627183"/>
<path d="M1.13778 188V187.233L4.01847 184.08C4.35653 183.71 4.63494 183.389 4.85369 183.116C5.07244 182.841 5.23438 182.582 5.33949 182.341C5.44744 182.097 5.50142 181.841 5.50142 181.574C5.50142 181.267 5.42756 181.001 5.27983 180.777C5.13494 180.553 4.93608 180.379 4.68324 180.257C4.4304 180.135 4.14631 180.074 3.83097 180.074C3.49574 180.074 3.20312 180.143 2.95312 180.283C2.70597 180.419 2.5142 180.611 2.37784 180.858C2.24432 181.105 2.17756 181.395 2.17756 181.727H1.17188C1.17188 181.216 1.28977 180.767 1.52557 180.381C1.76136 179.994 2.08239 179.693 2.48864 179.477C2.89773 179.261 3.35653 179.153 3.86506 179.153C4.37642 179.153 4.82955 179.261 5.22443 179.477C5.61932 179.693 5.92898 179.984 6.15341 180.351C6.37784 180.717 6.49006 181.125 6.49006 181.574C6.49006 181.895 6.43182 182.209 6.31534 182.516C6.2017 182.82 6.00284 183.159 5.71875 183.534C5.4375 183.906 5.04688 184.361 4.54688 184.898L2.58665 186.994V187.062H6.64347V188H1.13778ZM11.25 188.119C10.608 188.119 10.0611 187.945 9.60938 187.595C9.15767 187.243 8.8125 186.733 8.57386 186.065C8.33523 185.395 8.21591 184.585 8.21591 183.636C8.21591 182.693 8.33523 181.888 8.57386 181.22C8.81534 180.55 9.16193 180.038 9.61364 179.686C10.0682 179.331 10.6136 179.153 11.25 179.153C11.8864 179.153 12.4304 179.331 12.8821 179.686C13.3366 180.038 13.6832 180.55 13.9219 181.22C14.1634 181.888 14.2841 182.693 14.2841 183.636C14.2841 184.585 14.1648 185.395 13.9261 186.065C13.6875 186.733 13.3423 187.243 12.8906 187.595C12.4389 187.945 11.892 188.119 11.25 188.119ZM11.25 187.182C11.8864 187.182 12.3807 186.875 12.733 186.261C13.0852 185.648 13.2614 184.773 13.2614 183.636C13.2614 182.881 13.1804 182.237 13.0185 181.706C12.8594 181.175 12.6293 180.77 12.3281 180.491C12.0298 180.213 11.6705 180.074 11.25 180.074C10.6193 180.074 10.1264 180.385 9.77131 181.007C9.41619 181.626 9.23864 182.503 9.23864 183.636C9.23864 184.392 9.31818 185.034 9.47727 185.562C9.63636 186.091 9.86506 186.493 10.1634 186.768C10.4645 187.044 10.8267 187.182 11.25 187.182Z" fill="#627183"/>
<path d="M11.25 238.119C10.608 238.119 10.0611 237.945 9.60938 237.595C9.15767 237.243 8.8125 236.733 8.57386 236.065C8.33523 235.395 8.21591 234.585 8.21591 233.636C8.21591 232.693 8.33523 231.888 8.57386 231.22C8.81534 230.55 9.16193 230.038 9.61364 229.686C10.0682 229.331 10.6136 229.153 11.25 229.153C11.8864 229.153 12.4304 229.331 12.8821 229.686C13.3366 230.038 13.6832 230.55 13.9219 231.22C14.1634 231.888 14.2841 232.693 14.2841 233.636C14.2841 234.585 14.1648 235.395 13.9261 236.065C13.6875 236.733 13.3423 237.243 12.8906 237.595C12.4389 237.945 11.892 238.119 11.25 238.119ZM11.25 237.182C11.8864 237.182 12.3807 236.875 12.733 236.261C13.0852 235.648 13.2614 234.773 13.2614 233.636C13.2614 232.881 13.1804 232.237 13.0185 231.706C12.8594 231.175 12.6293 230.77 12.3281 230.491C12.0298 230.213 11.6705 230.074 11.25 230.074C10.6193 230.074 10.1264 230.385 9.77131 231.007C9.41619 231.626 9.23864 232.503 9.23864 233.636C9.23864 234.392 9.31818 235.034 9.47727 235.562C9.63636 236.091 9.86506 236.493 10.1634 236.768C10.4645 237.044 10.8267 237.182 11.25 237.182Z" fill="#627183"/>
<rect x="37" y="1" width="681" height="238" fill="#FDFFFF"/>
<rect x="39" y="237" width="681" height="1" rx="0.5" fill="#F2F6F7"/>
<rect x="39" y="190" width="681" height="1" rx="0.5" fill="#F2F6F7"/>
<rect x="39" y="142" width="681" height="1" rx="0.5" fill="#F2F6F7"/>
<rect x="39" y="95" width="681" height="1" rx="0.5" fill="#F2F6F7"/>
<rect x="39" y="48" width="681" height="1" rx="0.5" fill="#F2F6F7"/>
<rect x="39" width="681" height="1" rx="0.5" fill="#F2F6F7"/>
<rect x="717.074" y="237" width="237" height="1.59487" rx="0.797434" transform="rotate(-90 717.074 237)" fill="#F2F6F7"/>
<rect x="339.502" y="237" width="237" height="1.59487" rx="0.797434" transform="rotate(-90 339.502 237)" fill="#F2F6F7"/>
<rect x="269.531" y="237" width="237" height="1.59487" rx="0.797434" transform="rotate(-90 269.531 237)" fill="#F2F6F7"/>
<rect x="411.965" y="237" width="237" height="1.59486" rx="0.797429" transform="rotate(-90 411.965 237)" fill="#F2F6F7"/>
<rect x="481" y="237" width="237" height="1.59486" rx="0.797429" transform="rotate(-90 481 237)" fill="#F2F6F7"/>
<rect x="550" y="237" width="237" height="1.59486" rx="0.797429" transform="rotate(-90 550 237)" fill="#F2F6F7"/>
<rect x="620" y="237" width="237" height="1.59486" rx="0.797429" transform="rotate(-90 620 237)" fill="#F2F6F7"/>
<rect x="199.066" y="237" width="237" height="1.59487" rx="0.797434" transform="rotate(-90 199.066 237)" fill="#F2F6F7"/>
<rect x="128.602" y="237" width="237" height="1.59486" rx="0.797429" transform="rotate(-90 128.602 237)" fill="#F2F6F7"/>
<rect x="39" y="237" width="237" height="1.59487" rx="0.797437" transform="rotate(-90 39 237)" fill="#F2F6F7"/>
<path d="M54.1009 255.273H55.1577V261.511C55.1577 262.068 55.0554 262.541 54.8509 262.93C54.6463 263.32 54.358 263.615 53.9858 263.817C53.6136 264.018 53.1747 264.119 52.669 264.119C52.1918 264.119 51.767 264.033 51.3949 263.859C51.0227 263.683 50.7301 263.433 50.517 263.109C50.304 262.786 50.1974 262.401 50.1974 261.955H51.2372C51.2372 262.202 51.2983 262.418 51.4205 262.602C51.5455 262.784 51.7159 262.926 51.9318 263.028C52.1477 263.131 52.3935 263.182 52.669 263.182C52.973 263.182 53.2315 263.118 53.4446 262.99C53.6577 262.862 53.8196 262.675 53.9304 262.428C54.044 262.178 54.1009 261.872 54.1009 261.511V255.273ZM59.0653 264.153C58.6506 264.153 58.2741 264.075 57.9361 263.919C57.598 263.76 57.3295 263.531 57.1307 263.233C56.9318 262.932 56.8324 262.568 56.8324 262.142C56.8324 261.767 56.9063 261.463 57.054 261.23C57.2017 260.994 57.3991 260.81 57.6463 260.676C57.8935 260.543 58.1662 260.443 58.4645 260.378C58.7656 260.31 59.0682 260.256 59.3722 260.216C59.7699 260.165 60.0923 260.126 60.3395 260.101C60.5895 260.072 60.7713 260.026 60.8849 259.96C61.0014 259.895 61.0597 259.781 61.0597 259.619V259.585C61.0597 259.165 60.9446 258.838 60.7145 258.605C60.4872 258.372 60.142 258.256 59.679 258.256C59.1989 258.256 58.8224 258.361 58.5497 258.571C58.277 258.781 58.0852 259.006 57.9744 259.244L57.0199 258.903C57.1903 258.506 57.4176 258.196 57.7017 257.974C57.9886 257.75 58.3011 257.594 58.6392 257.506C58.9801 257.415 59.3153 257.369 59.6449 257.369C59.8551 257.369 60.0966 257.395 60.3693 257.446C60.6449 257.494 60.9105 257.595 61.1662 257.749C61.4247 257.902 61.6392 258.134 61.8097 258.443C61.9801 258.753 62.0653 259.168 62.0653 259.688V264H61.0597V263.114H61.0085C60.9403 263.256 60.8267 263.408 60.6676 263.57C60.5085 263.732 60.2969 263.869 60.0327 263.983C59.7685 264.097 59.446 264.153 59.0653 264.153ZM59.2188 263.25C59.6165 263.25 59.9517 263.172 60.2244 263.016C60.5 262.859 60.7074 262.658 60.8466 262.411C60.9886 262.163 61.0597 261.903 61.0597 261.631V260.71C61.017 260.761 60.9233 260.808 60.7784 260.851C60.6364 260.891 60.4716 260.926 60.2841 260.957C60.0994 260.986 59.919 261.011 59.7429 261.034C59.5696 261.054 59.429 261.071 59.321 261.085C59.0597 261.119 58.8153 261.175 58.5881 261.251C58.3636 261.325 58.1818 261.437 58.0426 261.588C57.9063 261.736 57.8381 261.937 57.8381 262.193C57.8381 262.543 57.9673 262.807 58.2259 262.986C58.4872 263.162 58.8182 263.25 59.2188 263.25ZM64.9066 260.062V264H63.9009V257.455H64.8725V258.477H64.9577C65.1112 258.145 65.3441 257.878 65.6566 257.676C65.9691 257.472 66.3725 257.369 66.8668 257.369C67.31 257.369 67.6978 257.46 68.0302 257.642C68.3626 257.821 68.6211 258.094 68.8058 258.46C68.9904 258.824 69.0827 259.284 69.0827 259.841V264H68.0771V259.909C68.0771 259.395 67.9435 258.994 67.6765 258.707C67.4094 258.418 67.043 258.273 66.5771 258.273C66.256 258.273 65.9691 258.342 65.7163 258.482C65.4663 258.621 65.2688 258.824 65.1239 259.091C64.979 259.358 64.9066 259.682 64.9066 260.062Z" fill="#627183"/>
<path d="M120.057 264V255.273H125.29V256.21H121.114V259.159H124.898V260.097H121.114V264H120.057ZM129.227 264.136C128.597 264.136 128.053 263.997 127.595 263.719C127.141 263.438 126.79 263.045 126.543 262.543C126.298 262.037 126.176 261.449 126.176 260.778C126.176 260.108 126.298 259.517 126.543 259.006C126.79 258.491 127.134 258.091 127.574 257.804C128.017 257.514 128.534 257.369 129.125 257.369C129.466 257.369 129.803 257.426 130.135 257.54C130.467 257.653 130.77 257.838 131.043 258.094C131.315 258.347 131.533 258.682 131.695 259.099C131.857 259.517 131.938 260.031 131.938 260.642V261.068H126.892V260.199H130.915C130.915 259.83 130.841 259.5 130.693 259.21C130.548 258.92 130.341 258.692 130.071 258.524C129.804 258.357 129.489 258.273 129.125 258.273C128.724 258.273 128.378 258.372 128.085 258.571C127.795 258.767 127.572 259.023 127.416 259.338C127.26 259.653 127.182 259.991 127.182 260.352V260.932C127.182 261.426 127.267 261.845 127.438 262.189C127.611 262.53 127.851 262.79 128.158 262.969C128.464 263.145 128.821 263.233 129.227 263.233C129.491 263.233 129.73 263.196 129.943 263.122C130.159 263.045 130.345 262.932 130.501 262.781C130.658 262.628 130.778 262.437 130.864 262.21L131.835 262.483C131.733 262.812 131.561 263.102 131.32 263.352C131.078 263.599 130.78 263.793 130.425 263.932C130.07 264.068 129.67 264.136 129.227 264.136ZM133.604 264V255.273H134.609V258.494H134.695C134.768 258.381 134.871 258.236 135.001 258.06C135.135 257.881 135.325 257.722 135.572 257.582C135.822 257.44 136.161 257.369 136.587 257.369C137.138 257.369 137.624 257.507 138.044 257.783C138.464 258.058 138.793 258.449 139.028 258.955C139.264 259.46 139.382 260.057 139.382 260.744C139.382 261.438 139.264 262.038 139.028 262.547C138.793 263.053 138.466 263.445 138.048 263.723C137.631 263.999 137.149 264.136 136.604 264.136C136.183 264.136 135.847 264.067 135.594 263.928C135.341 263.786 135.146 263.625 135.01 263.446C134.874 263.264 134.768 263.114 134.695 262.994H134.575V264H133.604ZM134.592 260.727C134.592 261.222 134.665 261.658 134.81 262.036C134.955 262.411 135.166 262.705 135.445 262.918C135.723 263.128 136.064 263.233 136.467 263.233C136.888 263.233 137.239 263.122 137.52 262.901C137.804 262.676 138.017 262.375 138.159 261.997C138.304 261.616 138.376 261.193 138.376 260.727C138.376 260.267 138.305 259.852 138.163 259.483C138.024 259.111 137.813 258.817 137.528 258.601C137.247 258.382 136.893 258.273 136.467 258.273C136.058 258.273 135.714 258.376 135.436 258.584C135.158 258.788 134.947 259.075 134.805 259.445C134.663 259.811 134.592 260.239 134.592 260.727Z" fill="#627183"/>
<path d="M190.106 255.273H191.367L194.333 262.517H194.435L197.401 255.273H198.662V264H197.674V257.369H197.589L194.861 264H193.907L191.18 257.369H191.094V264H190.106V255.273ZM202.571 264.153C202.156 264.153 201.78 264.075 201.442 263.919C201.104 263.76 200.835 263.531 200.637 263.233C200.438 262.932 200.338 262.568 200.338 262.142C200.338 261.767 200.412 261.463 200.56 261.23C200.708 260.994 200.905 260.81 201.152 260.676C201.399 260.543 201.672 260.443 201.97 260.378C202.271 260.31 202.574 260.256 202.878 260.216C203.276 260.165 203.598 260.126 203.845 260.101C204.095 260.072 204.277 260.026 204.391 259.96C204.507 259.895 204.566 259.781 204.566 259.619V259.585C204.566 259.165 204.45 258.838 204.22 258.605C203.993 258.372 203.648 258.256 203.185 258.256C202.705 258.256 202.328 258.361 202.056 258.571C201.783 258.781 201.591 259.006 201.48 259.244L200.526 258.903C200.696 258.506 200.923 258.196 201.208 257.974C201.494 257.75 201.807 257.594 202.145 257.506C202.486 257.415 202.821 257.369 203.151 257.369C203.361 257.369 203.602 257.395 203.875 257.446C204.151 257.494 204.416 257.595 204.672 257.749C204.931 257.902 205.145 258.134 205.316 258.443C205.486 258.753 205.571 259.168 205.571 259.688V264H204.566V263.114H204.514C204.446 263.256 204.333 263.408 204.173 263.57C204.014 263.732 203.803 263.869 203.539 263.983C203.274 264.097 202.952 264.153 202.571 264.153ZM202.725 263.25C203.122 263.25 203.458 263.172 203.73 263.016C204.006 262.859 204.213 262.658 204.352 262.411C204.494 262.163 204.566 261.903 204.566 261.631V260.71C204.523 260.761 204.429 260.808 204.284 260.851C204.142 260.891 203.977 260.926 203.79 260.957C203.605 260.986 203.425 261.011 203.249 261.034C203.075 261.054 202.935 261.071 202.827 261.085C202.566 261.119 202.321 261.175 202.094 261.251C201.869 261.325 201.688 261.437 201.548 261.588C201.412 261.736 201.344 261.937 201.344 262.193C201.344 262.543 201.473 262.807 201.732 262.986C201.993 263.162 202.324 263.25 202.725 263.25ZM207.407 264V257.455H208.378V258.443H208.447C208.566 258.119 208.782 257.857 209.094 257.655C209.407 257.453 209.759 257.352 210.151 257.352C210.225 257.352 210.317 257.354 210.428 257.357C210.539 257.359 210.623 257.364 210.68 257.369V258.392C210.645 258.384 210.567 258.371 210.445 258.354C210.326 258.334 210.199 258.324 210.066 258.324C209.748 258.324 209.464 258.391 209.214 258.524C208.966 258.655 208.77 258.837 208.626 259.07C208.483 259.3 208.412 259.562 208.412 259.858V264H207.407Z" fill="#627183"/>
<path d="M261.471 264H260.363L263.568 255.273H264.659L267.863 264H266.756L264.148 256.653H264.079L261.471 264ZM261.881 260.591H266.346V261.528H261.881V260.591ZM269.086 266.455V257.455H270.058V258.494H270.177C270.251 258.381 270.354 258.236 270.484 258.06C270.618 257.881 270.808 257.722 271.055 257.582C271.305 257.44 271.643 257.369 272.069 257.369C272.621 257.369 273.106 257.507 273.527 257.783C273.947 258.058 274.275 258.449 274.511 258.955C274.747 259.46 274.865 260.057 274.865 260.744C274.865 261.438 274.747 262.038 274.511 262.547C274.275 263.053 273.949 263.445 273.531 263.723C273.113 263.999 272.632 264.136 272.086 264.136C271.666 264.136 271.329 264.067 271.077 263.928C270.824 263.786 270.629 263.625 270.493 263.446C270.356 263.264 270.251 263.114 270.177 262.994H270.092V266.455H269.086ZM270.075 260.727C270.075 261.222 270.148 261.658 270.292 262.036C270.437 262.411 270.649 262.705 270.927 262.918C271.206 263.128 271.547 263.233 271.95 263.233C272.371 263.233 272.721 263.122 273.003 262.901C273.287 262.676 273.5 262.375 273.642 261.997C273.787 261.616 273.859 261.193 273.859 260.727C273.859 260.267 273.788 259.852 273.646 259.483C273.507 259.111 273.295 258.817 273.011 258.601C272.73 258.382 272.376 258.273 271.95 258.273C271.541 258.273 271.197 258.376 270.919 258.584C270.64 258.788 270.43 259.075 270.288 259.445C270.146 259.811 270.075 260.239 270.075 260.727ZM276.399 264V257.455H277.371V258.443H277.439C277.558 258.119 277.774 257.857 278.086 257.655C278.399 257.453 278.751 257.352 279.143 257.352C279.217 257.352 279.309 257.354 279.42 257.357C279.531 257.359 279.615 257.364 279.672 257.369V258.392C279.638 258.384 279.559 258.371 279.437 258.354C279.318 258.334 279.192 258.324 279.058 258.324C278.74 258.324 278.456 258.391 278.206 258.524C277.959 258.655 277.763 258.837 277.618 259.07C277.476 259.3 277.405 259.562 277.405 259.858V264H276.399Z" fill="#627183"/>
<path d="M330.115 255.273H331.377L334.343 262.517H334.445L337.411 255.273H338.672V264H337.684V257.369H337.598L334.871 264H333.917L331.189 257.369H331.104V264H330.115V255.273ZM342.581 264.153C342.166 264.153 341.79 264.075 341.452 263.919C341.114 263.76 340.845 263.531 340.646 263.233C340.447 262.932 340.348 262.568 340.348 262.142C340.348 261.767 340.422 261.463 340.57 261.23C340.717 260.994 340.915 260.81 341.162 260.676C341.409 260.543 341.682 260.443 341.98 260.378C342.281 260.31 342.584 260.256 342.888 260.216C343.286 260.165 343.608 260.126 343.855 260.101C344.105 260.072 344.287 260.026 344.401 259.96C344.517 259.895 344.575 259.781 344.575 259.619V259.585C344.575 259.165 344.46 258.838 344.23 258.605C344.003 258.372 343.658 258.256 343.195 258.256C342.714 258.256 342.338 258.361 342.065 258.571C341.793 258.781 341.601 259.006 341.49 259.244L340.536 258.903C340.706 258.506 340.933 258.196 341.217 257.974C341.504 257.75 341.817 257.594 342.155 257.506C342.496 257.415 342.831 257.369 343.161 257.369C343.371 257.369 343.612 257.395 343.885 257.446C344.161 257.494 344.426 257.595 344.682 257.749C344.94 257.902 345.155 258.134 345.325 258.443C345.496 258.753 345.581 259.168 345.581 259.688V264H344.575V263.114H344.524C344.456 263.256 344.342 263.408 344.183 263.57C344.024 263.732 343.813 263.869 343.548 263.983C343.284 264.097 342.962 264.153 342.581 264.153ZM342.734 263.25C343.132 263.25 343.467 263.172 343.74 263.016C344.016 262.859 344.223 262.658 344.362 262.411C344.504 262.163 344.575 261.903 344.575 261.631V260.71C344.533 260.761 344.439 260.808 344.294 260.851C344.152 260.891 343.987 260.926 343.8 260.957C343.615 260.986 343.435 261.011 343.259 261.034C343.085 261.054 342.945 261.071 342.837 261.085C342.575 261.119 342.331 261.175 342.104 261.251C341.879 261.325 341.697 261.437 341.558 261.588C341.422 261.736 341.354 261.937 341.354 262.193C341.354 262.543 341.483 262.807 341.741 262.986C342.003 263.162 342.334 263.25 342.734 263.25ZM347.83 266.455C347.659 266.455 347.507 266.44 347.374 266.412C347.24 266.386 347.148 266.361 347.097 266.335L347.353 265.449C347.597 265.511 347.813 265.534 348 265.517C348.188 265.5 348.354 265.416 348.499 265.266C348.647 265.118 348.782 264.878 348.904 264.545L349.091 264.034L346.671 257.455H347.762L349.569 262.67H349.637L351.444 257.455H352.534L349.756 264.955C349.631 265.293 349.476 265.572 349.292 265.794C349.107 266.018 348.892 266.185 348.648 266.293C348.407 266.401 348.134 266.455 347.83 266.455Z" fill="#627183"/>
<path d="M406.644 255.273H407.701V261.511C407.701 262.068 407.598 262.541 407.394 262.93C407.189 263.32 406.901 263.615 406.529 263.817C406.157 264.018 405.718 264.119 405.212 264.119C404.735 264.119 404.31 264.033 403.938 263.859C403.566 263.683 403.273 263.433 403.06 263.109C402.847 262.786 402.74 262.401 402.74 261.955H403.78C403.78 262.202 403.841 262.418 403.963 262.602C404.088 262.784 404.259 262.926 404.475 263.028C404.691 263.131 404.936 263.182 405.212 263.182C405.516 263.182 405.775 263.118 405.988 262.99C406.201 262.862 406.363 262.675 406.473 262.428C406.587 262.178 406.644 261.872 406.644 261.511V255.273ZM413.807 261.324V257.455H414.813V264H413.807V262.892H413.739C413.586 263.224 413.347 263.507 413.023 263.74C412.699 263.97 412.29 264.085 411.796 264.085C411.387 264.085 411.023 263.996 410.705 263.817C410.387 263.635 410.137 263.362 409.955 262.999C409.773 262.632 409.682 262.17 409.682 261.614V257.455H410.688V261.545C410.688 262.023 410.821 262.403 411.088 262.688C411.358 262.972 411.702 263.114 412.12 263.114C412.37 263.114 412.624 263.05 412.882 262.922C413.144 262.794 413.363 262.598 413.539 262.334C413.718 262.07 413.807 261.733 413.807 261.324ZM417.661 260.062V264H416.655V257.455H417.626V258.477H417.712C417.865 258.145 418.098 257.878 418.411 257.676C418.723 257.472 419.126 257.369 419.621 257.369C420.064 257.369 420.452 257.46 420.784 257.642C421.116 257.821 421.375 258.094 421.56 258.46C421.744 258.824 421.837 259.284 421.837 259.841V264H420.831V259.909C420.831 259.395 420.697 258.994 420.43 258.707C420.163 258.418 419.797 258.273 419.331 258.273C419.01 258.273 418.723 258.342 418.47 258.482C418.22 258.621 418.023 258.824 417.878 259.091C417.733 259.358 417.661 259.682 417.661 260.062Z" fill="#627183"/>
<path d="M476.73 255.273H477.787V261.511C477.787 262.068 477.684 262.541 477.48 262.93C477.275 263.32 476.987 263.615 476.615 263.817C476.243 264.018 475.804 264.119 475.298 264.119C474.821 264.119 474.396 264.033 474.024 263.859C473.652 263.683 473.359 263.433 473.146 263.109C472.933 262.786 472.826 262.401 472.826 261.955H473.866C473.866 262.202 473.927 262.418 474.049 262.602C474.174 262.784 474.345 262.926 474.561 263.028C474.777 263.131 475.022 263.182 475.298 263.182C475.602 263.182 475.86 263.118 476.074 262.99C476.287 262.862 476.449 262.675 476.559 262.428C476.673 262.178 476.73 261.872 476.73 261.511V255.273ZM483.893 261.324V257.455H484.899V264H483.893V262.892H483.825C483.672 263.224 483.433 263.507 483.109 263.74C482.785 263.97 482.376 264.085 481.882 264.085C481.473 264.085 481.109 263.996 480.791 263.817C480.473 263.635 480.223 263.362 480.041 262.999C479.859 262.632 479.768 262.17 479.768 261.614V257.455H480.774V261.545C480.774 262.023 480.907 262.403 481.174 262.688C481.444 262.972 481.788 263.114 482.206 263.114C482.456 263.114 482.71 263.05 482.968 262.922C483.23 262.794 483.449 262.598 483.625 262.334C483.804 262.07 483.893 261.733 483.893 261.324ZM487.746 255.273V264H486.741V255.273H487.746Z" fill="#627183"/>
<path d="M539.718 264H538.61L541.814 255.273H542.905L546.11 264H545.002L542.394 256.653H542.325L539.718 264ZM540.127 260.591H544.593V261.528H540.127V260.591ZM551.458 261.324V257.455H552.463V264H551.458V262.892H551.389C551.236 263.224 550.997 263.507 550.673 263.74C550.35 263.97 549.941 264.085 549.446 264.085C549.037 264.085 548.673 263.996 548.355 263.817C548.037 263.635 547.787 263.362 547.605 262.999C547.423 262.632 547.333 262.17 547.333 261.614V257.455H548.338V261.545C548.338 262.023 548.472 262.403 548.739 262.688C549.009 262.972 549.352 263.114 549.77 263.114C550.02 263.114 550.274 263.05 550.533 262.922C550.794 262.794 551.013 262.598 551.189 262.334C551.368 262.07 551.458 261.733 551.458 261.324ZM556.947 266.591C556.461 266.591 556.044 266.528 555.694 266.403C555.345 266.281 555.054 266.119 554.821 265.918C554.591 265.719 554.407 265.506 554.271 265.278L555.072 264.716C555.163 264.835 555.278 264.972 555.417 265.125C555.557 265.281 555.747 265.416 555.988 265.53C556.233 265.646 556.552 265.705 556.947 265.705C557.476 265.705 557.912 265.577 558.256 265.321C558.599 265.065 558.771 264.665 558.771 264.119V262.79H558.686C558.612 262.909 558.507 263.057 558.371 263.233C558.237 263.406 558.044 263.561 557.791 263.697C557.541 263.831 557.203 263.898 556.777 263.898C556.248 263.898 555.774 263.773 555.354 263.523C554.936 263.273 554.605 262.909 554.361 262.432C554.119 261.955 553.998 261.375 553.998 260.693C553.998 260.023 554.116 259.439 554.352 258.942C554.588 258.442 554.916 258.055 555.336 257.783C555.757 257.507 556.243 257.369 556.794 257.369C557.22 257.369 557.558 257.44 557.808 257.582C558.061 257.722 558.254 257.881 558.388 258.06C558.524 258.236 558.629 258.381 558.703 258.494H558.805V257.455H559.777V264.188C559.777 264.75 559.649 265.207 559.393 265.56C559.14 265.915 558.8 266.175 558.371 266.339C557.944 266.507 557.47 266.591 556.947 266.591ZM556.913 262.994C557.317 262.994 557.657 262.902 557.936 262.717C558.214 262.533 558.426 262.267 558.571 261.92C558.716 261.574 558.788 261.159 558.788 260.676C558.788 260.205 558.717 259.788 558.575 259.428C558.433 259.067 558.223 258.784 557.944 258.58C557.666 258.375 557.322 258.273 556.913 258.273C556.487 258.273 556.132 258.381 555.848 258.597C555.567 258.812 555.355 259.102 555.213 259.466C555.074 259.83 555.004 260.233 555.004 260.676C555.004 261.131 555.075 261.533 555.217 261.882C555.362 262.229 555.575 262.501 555.856 262.7C556.14 262.896 556.493 262.994 556.913 262.994Z" fill="#627183"/>
<path d="M615.855 257.455C615.804 257.023 615.596 256.688 615.233 256.449C614.869 256.21 614.423 256.091 613.895 256.091C613.508 256.091 613.17 256.153 612.881 256.278C612.594 256.403 612.369 256.575 612.207 256.794C612.048 257.013 611.969 257.261 611.969 257.54C611.969 257.773 612.024 257.973 612.135 258.141C612.248 258.305 612.393 258.443 612.569 258.554C612.746 258.662 612.93 258.751 613.123 258.822C613.317 258.891 613.494 258.946 613.656 258.989L614.542 259.227C614.77 259.287 615.023 259.369 615.301 259.474C615.582 259.58 615.851 259.723 616.106 259.905C616.365 260.084 616.578 260.314 616.746 260.595C616.913 260.876 616.997 261.222 616.997 261.631C616.997 262.102 616.873 262.528 616.626 262.909C616.382 263.29 616.024 263.592 615.552 263.817C615.084 264.041 614.514 264.153 613.844 264.153C613.219 264.153 612.677 264.053 612.22 263.851C611.765 263.649 611.407 263.368 611.146 263.007C610.888 262.646 610.741 262.227 610.707 261.75H611.798C611.827 262.08 611.937 262.352 612.131 262.568C612.327 262.781 612.574 262.94 612.872 263.045C613.173 263.148 613.497 263.199 613.844 263.199C614.247 263.199 614.609 263.134 614.93 263.003C615.251 262.869 615.506 262.685 615.693 262.449C615.881 262.21 615.974 261.932 615.974 261.614C615.974 261.324 615.893 261.088 615.731 260.906C615.569 260.724 615.356 260.577 615.092 260.463C614.828 260.349 614.542 260.25 614.236 260.165L613.162 259.858C612.48 259.662 611.94 259.382 611.542 259.018C611.145 258.655 610.946 258.179 610.946 257.591C610.946 257.102 611.078 256.676 611.342 256.312C611.609 255.946 611.967 255.662 612.416 255.46C612.868 255.256 613.372 255.153 613.929 255.153C614.491 255.153 614.991 255.254 615.429 255.456C615.866 255.655 616.213 255.928 616.469 256.274C616.727 256.621 616.863 257.014 616.878 257.455H615.855ZM621.343 264.136C620.712 264.136 620.168 263.997 619.71 263.719C619.256 263.438 618.905 263.045 618.658 262.543C618.414 262.037 618.291 261.449 618.291 260.778C618.291 260.108 618.414 259.517 618.658 259.006C618.905 258.491 619.249 258.091 619.689 257.804C620.132 257.514 620.649 257.369 621.24 257.369C621.581 257.369 621.918 257.426 622.25 257.54C622.583 257.653 622.885 257.838 623.158 258.094C623.431 258.347 623.648 258.682 623.81 259.099C623.972 259.517 624.053 260.031 624.053 260.642V261.068H619.007V260.199H623.03C623.03 259.83 622.956 259.5 622.808 259.21C622.664 258.92 622.456 258.692 622.186 258.524C621.919 258.357 621.604 258.273 621.24 258.273C620.84 258.273 620.493 258.372 620.2 258.571C619.911 258.767 619.688 259.023 619.531 259.338C619.375 259.653 619.297 259.991 619.297 260.352V260.932C619.297 261.426 619.382 261.845 619.553 262.189C619.726 262.53 619.966 262.79 620.273 262.969C620.58 263.145 620.936 263.233 621.343 263.233C621.607 263.233 621.845 263.196 622.058 263.122C622.274 263.045 622.46 262.932 622.617 262.781C622.773 262.628 622.894 262.437 622.979 262.21L623.95 262.483C623.848 262.812 623.676 263.102 623.435 263.352C623.193 263.599 622.895 263.793 622.54 263.932C622.185 264.068 621.786 264.136 621.343 264.136ZM625.583 266.455V257.455H626.554V258.494H626.673C626.747 258.381 626.85 258.236 626.98 258.06C627.114 257.881 627.304 257.722 627.551 257.582C627.801 257.44 628.139 257.369 628.566 257.369C629.117 257.369 629.602 257.507 630.023 257.783C630.443 258.058 630.771 258.449 631.007 258.955C631.243 259.46 631.361 260.057 631.361 260.744C631.361 261.438 631.243 262.038 631.007 262.547C630.771 263.053 630.445 263.445 630.027 263.723C629.61 263.999 629.128 264.136 628.583 264.136C628.162 264.136 627.825 264.067 627.573 263.928C627.32 263.786 627.125 263.625 626.989 263.446C626.852 263.264 626.747 263.114 626.673 262.994H626.588V266.455H625.583ZM626.571 260.727C626.571 261.222 626.644 261.658 626.789 262.036C626.933 262.411 627.145 262.705 627.423 262.918C627.702 263.128 628.043 263.233 628.446 263.233C628.867 263.233 629.218 263.122 629.499 262.901C629.783 262.676 629.996 262.375 630.138 261.997C630.283 261.616 630.355 261.193 630.355 260.727C630.355 260.267 630.284 259.852 630.142 259.483C630.003 259.111 629.791 258.817 629.507 258.601C629.226 258.382 628.872 258.273 628.446 258.273C628.037 258.273 627.693 258.376 627.415 258.584C627.137 258.788 626.926 259.075 626.784 259.445C626.642 259.811 626.571 260.239 626.571 260.727Z" fill="#627183"/>
<path d="M689.819 259.636C689.819 260.557 689.653 261.352 689.32 262.023C688.988 262.693 688.532 263.21 687.952 263.574C687.373 263.938 686.711 264.119 685.967 264.119C685.222 264.119 684.56 263.938 683.981 263.574C683.401 263.21 682.945 262.693 682.613 262.023C682.281 261.352 682.114 260.557 682.114 259.636C682.114 258.716 682.281 257.92 682.613 257.25C682.945 256.58 683.401 256.062 683.981 255.699C684.56 255.335 685.222 255.153 685.967 255.153C686.711 255.153 687.373 255.335 687.952 255.699C688.532 256.062 688.988 256.58 689.32 257.25C689.653 257.92 689.819 258.716 689.819 259.636ZM688.796 259.636C688.796 258.881 688.67 258.243 688.417 257.723C688.167 257.203 687.827 256.81 687.398 256.543C686.972 256.276 686.495 256.142 685.967 256.142C685.438 256.142 684.96 256.276 684.531 256.543C684.104 256.81 683.765 257.203 683.512 257.723C683.262 258.243 683.137 258.881 683.137 259.636C683.137 260.392 683.262 261.03 683.512 261.55C683.765 262.07 684.104 262.463 684.531 262.73C684.96 262.997 685.438 263.131 685.967 263.131C686.495 263.131 686.972 262.997 687.398 262.73C687.827 262.463 688.167 262.07 688.417 261.55C688.67 261.03 688.796 260.392 688.796 259.636ZM694.119 264.136C693.505 264.136 692.977 263.991 692.533 263.702C692.09 263.412 691.749 263.013 691.511 262.504C691.272 261.996 691.153 261.415 691.153 260.761C691.153 260.097 691.275 259.51 691.519 259.001C691.766 258.49 692.11 258.091 692.55 257.804C692.994 257.514 693.511 257.369 694.102 257.369C694.562 257.369 694.977 257.455 695.346 257.625C695.715 257.795 696.018 258.034 696.254 258.341C696.489 258.648 696.636 259.006 696.692 259.415H695.687C695.61 259.116 695.44 258.852 695.175 258.622C694.914 258.389 694.562 258.273 694.119 258.273C693.727 258.273 693.383 258.375 693.087 258.58C692.795 258.781 692.566 259.067 692.401 259.436C692.239 259.803 692.158 260.233 692.158 260.727C692.158 261.233 692.238 261.673 692.397 262.048C692.559 262.423 692.786 262.714 693.079 262.922C693.374 263.129 693.721 263.233 694.119 263.233C694.38 263.233 694.617 263.188 694.83 263.097C695.043 263.006 695.224 262.875 695.371 262.705C695.519 262.534 695.624 262.33 695.687 262.091H696.692C696.636 262.477 696.495 262.825 696.271 263.135C696.049 263.442 695.755 263.686 695.388 263.868C695.025 264.047 694.602 264.136 694.119 264.136ZM701.009 257.455V258.307H697.617V257.455H701.009ZM698.606 255.886H699.612V262.125C699.612 262.409 699.653 262.622 699.735 262.764C699.82 262.903 699.928 262.997 700.059 263.045C700.192 263.091 700.333 263.114 700.481 263.114C700.592 263.114 700.683 263.108 700.754 263.097C700.825 263.082 700.881 263.071 700.924 263.062L701.129 263.966C701.06 263.991 700.965 264.017 700.843 264.043C700.721 264.071 700.566 264.085 700.379 264.085C700.094 264.085 699.816 264.024 699.543 263.902C699.273 263.78 699.049 263.594 698.87 263.344C698.694 263.094 698.606 262.778 698.606 262.398V255.886Z" fill="#627183"/>
<path d="M129.452 186.642C78.2764 180.152 80.8676 135.665 42 143.154V230.557H717V200.622C683.963 200.622 679.428 176.212 663.881 170.72C648.334 165.228 632.139 141.157 614.001 143.154C595.863 145.151 585.498 195.629 547.278 200.622C509.059 205.614 481.203 202.619 450.757 178.155C420.311 153.691 413.833 120.58 381.443 115.587C349.054 110.595 329.62 70.5749 290.752 66.5808C251.885 62.5867 241.52 121.738 218.2 134.719C194.879 147.7 180.628 193.133 129.452 186.642Z" fill="url(#paint0_linear_214_1837)"/>
<g filter="url(#filter0_d_214_1837)">
<path d="M42 143.27C80.8676 135.77 78.2764 180.325 129.452 186.825C180.628 193.325 194.879 147.823 218.2 134.823C241.52 121.822 251.885 62.5809 290.752 66.5811C329.62 70.5812 349.054 110.662 381.443 115.662C413.833 120.662 420.311 153.824 450.757 178.324C481.203 202.825 509.059 205.825 547.278 200.825C585.498 195.825 595.863 145.27 614.001 143.27C632.139 141.27 648.334 165.378 663.881 170.878C679.428 176.378 683.963 200.825 717 200.825" stroke="#F96363" stroke-width="4" stroke-linecap="round" stroke-linejoin="round"/>
</g>
<g filter="url(#filter1_d_214_1837)">
<path d="M40 213.744C69.7771 207.111 94.2634 166.661 129.793 159.862C148.73 156.238 163.9 163.291 180.826 174.25C197.752 185.209 194.439 189.941 232.506 198.39C263.919 205.362 272.137 130.192 302.919 133.08C333.701 135.969 347.938 45.5913 380.438 53.1356C412.937 60.68 419.431 41.1744 449.98 78.1416C480.53 115.109 508.755 28.9406 547.104 21.3963C585.453 13.8519 595.441 93.9263 613.641 90.9086C631.841 87.8908 648.227 144.949 663.827 153.248C679.427 161.547 683.851 131.4 717 131.4" stroke="#3C77EE" stroke-width="4" stroke-linecap="round" stroke-linejoin="round"/>
</g>
<path d="M129.793 159.505C94.2634 166.286 69.7771 206.633 40 213.249V229.568H717V131.116C683.851 131.116 679.427 161.185 663.827 152.908C648.227 144.63 631.841 87.7187 613.641 90.7287C595.441 93.7387 585.453 13.87 547.104 21.395C508.755 28.92 480.53 114.867 449.981 77.9946C419.431 41.1223 412.937 60.5778 380.438 53.0528C347.938 45.5278 333.701 135.673 302.919 132.792C272.137 129.912 263.919 204.888 232.506 197.934C194.439 189.507 197.752 184.787 180.826 173.856C163.9 162.925 148.73 155.89 129.793 159.505Z" fill="url(#paint1_linear_214_1837)"/>
<defs>
<filter id="filter0_d_214_1837" x="36" y="64.3867" width="687" height="152.479" filterUnits="userSpaceOnUse" color-interpolation-filters="sRGB">
<feFlood flood-opacity="0" result="BackgroundImageFix"/>
<feColorMatrix in="SourceAlpha" type="matrix" values="0 0 0 0 0 0 0 0 0 0 0 0 0 0 0 0 0 0 127 0" result="hardAlpha"/>
<feOffset dy="8"/>
<feGaussianBlur stdDeviation="2"/>
<feComposite in2="hardAlpha" operator="out"/>
<feColorMatrix type="matrix" values="0 0 0 0 0.976471 0 0 0 0 0.388235 0 0 0 0 0.388235 0 0 0 0.25 0"/>
<feBlend mode="normal" in2="BackgroundImageFix" result="effect1_dropShadow_214_1837"/>
<feBlend mode="normal" in="SourceGraphic" in2="effect1_dropShadow_214_1837" result="shape"/>
</filter>
<filter id="filter1_d_214_1837" x="34" y="18.8936" width="689" height="208.852" filterUnits="userSpaceOnUse" color-interpolation-filters="sRGB">
<feFlood flood-opacity="0" result="BackgroundImageFix"/>
<feColorMatrix in="SourceAlpha" type="matrix" values="0 0 0 0 0 0 0 0 0 0 0 0 0 0 0 0 0 0 127 0" result="hardAlpha"/>
<feOffset dy="8"/>
<feGaussianBlur stdDeviation="2"/>
<feComposite in2="hardAlpha" operator="out"/>
<feColorMatrix type="matrix" values="0 0 0 0 0.298039 0 0 0 0 0.533333 0 0 0 0 1 0 0 0 0.25 0"/>
<feBlend mode="normal" in2="BackgroundImageFix" result="effect1_dropShadow_214_1837"/>
<feBlend mode="normal" in="SourceGraphic" in2="effect1_dropShadow_214_1837" result="shape"/>
</filter>
<linearGradient id="paint0_linear_214_1837" x1="379.5" y1="66.3877" x2="379.5" y2="230.557" gradientUnits="userSpaceOnUse">
<stop stop-color="#F96363" stop-opacity="0.1"/>
<stop offset="1" stop-color="#FF8B8B" stop-opacity="0"/>
</linearGradient>
<linearGradient id="paint1_linear_214_1837" x1="378.5" y1="20.8945" x2="378.5" y2="316.856" gradientUnits="userSpaceOnUse">
<stop stop-color="#3C77EE" stop-opacity="0.1"/>
<stop offset="0.998978" stop-color="white" stop-opacity="0"/>
</linearGradient>
</defs>
</svg>
