<svg width="16" height="16" viewBox="0 0 16 16" fill="none" xmlns="http://www.w3.org/2000/svg">
<path d="M1.55954 8.4582L1.34462 9.96267C1.01574 12.2648 0.8513 13.4159 1.41768 14.0421C1.59121 14.2339 1.81823 14.3947 2.05681 14.4947C2.8355 14.8211 3.84422 14.2955 5.86166 13.2445C6.34768 12.9912 6.81863 12.7397 7.25 12.5C8.10333 12.0259 9.22943 11.3872 10.3623 10.7401C12.2243 9.67656 13.1553 9.14477 13.3228 8.35556C13.3747 8.11098 13.3743 7.84711 13.3216 7.6027C13.1516 6.81402 12.2261 6.2893 10.3752 5.23985C9.40091 4.68746 8.33851 4.09373 7.25 3.5C6.69786 3.19884 6.1726 2.91783 5.67691 2.65697C3.78566 1.66171 2.84003 1.16408 2.05886 1.48923C1.82339 1.58725 1.58903 1.75249 1.41762 1.94137C0.848992 2.56795 1.00444 3.65605 1.31532 5.83226L1.55954 7.54179C1.58858 7.74506 1.6031 7.84669 1.606 7.94892C1.60697 7.98296 1.60697 8.01703 1.606 8.05107C1.6031 8.15331 1.58858 8.25494 1.55954 8.4582Z" stroke="#627183" stroke-width="1.4"/>
<path d="M6.5 8L2 8" stroke="#627183" stroke-width="1.4" stroke-linecap="round"/>
</svg>
